<svg width="100" height="101" viewBox="0 0 100 101" fill="none" xmlns="http://www.w3.org/2000/svg">
<path d="M76.2009 35.7859L63.7116 23.2969C63.571 23.1562 63.3802 23.0772 63.1813 23.0771H36.0429C35.844 23.0772 35.6533 23.1562 35.5126 23.2969L27.8351 30.9744C27.3177 30.718 26.7257 30.6547 26.1658 30.7958C25.6058 30.937 25.1146 31.2732 24.7804 31.7442C24.4462 32.2152 24.291 32.7899 24.3428 33.3651C24.3945 33.9402 24.6497 34.478 25.0626 34.8818C25.4754 35.2856 26.0188 35.5288 26.595 35.5677C27.1711 35.6067 27.7423 35.4388 28.2057 35.0942C28.6691 34.7496 28.9944 34.251 29.123 33.6881C29.2517 33.1251 29.1752 32.5347 28.9074 32.0231L36.3535 24.5771H62.8708L74.9206 36.6267V43.6342L73.1007 45.454C72.5893 45.1777 71.996 45.0931 71.4277 45.2155C70.8593 45.3378 70.3534 45.659 70.0009 46.1212C69.6484 46.5835 69.4725 47.1564 69.5049 47.7368C69.5373 48.3173 69.7758 48.867 70.1776 49.2872C70.5794 49.7073 71.1179 49.9702 71.6963 50.0285C72.2747 50.0868 72.8549 49.9367 73.3325 49.6052C73.81 49.2737 74.1535 48.7826 74.3011 48.2204C74.4487 47.6581 74.3907 47.0616 74.1376 46.5383L76.2009 44.475C76.3415 44.3344 76.4206 44.1436 76.4206 43.9447V36.3162C76.4206 36.1173 76.3415 35.9265 76.2009 35.7859ZM26.7604 34.0669C26.5778 34.0669 26.3992 34.0127 26.2473 33.9112C26.0954 33.8097 25.9771 33.6655 25.9072 33.4967C25.8373 33.328 25.819 33.1423 25.8546 32.9631C25.8902 32.784 25.9782 32.6194 26.1074 32.4902C26.2365 32.3611 26.4011 32.2731 26.5803 32.2375C26.7594 32.2018 26.9451 32.2201 27.1139 32.29C27.2826 32.3599 27.4269 32.4783 27.5284 32.6302C27.6298 32.7821 27.684 32.9606 27.684 33.1433C27.6837 33.3882 27.5864 33.6229 27.4132 33.7961C27.2401 33.9692 27.0053 34.0666 26.7604 34.0669ZM71.9574 48.5137C71.7748 48.5137 71.5962 48.4595 71.4443 48.358C71.2924 48.2565 71.1741 48.1123 71.1042 47.9435C71.0343 47.7748 71.016 47.5891 71.0516 47.4099C71.0872 47.2307 71.1752 47.0662 71.3044 46.937C71.4335 46.8079 71.5981 46.7199 71.7773 46.6843C71.9564 46.6486 72.1421 46.6669 72.3109 46.7368C72.4796 46.8067 72.6239 46.9251 72.7254 47.077C72.8268 47.2289 72.881 47.4074 72.881 47.5901C72.8807 47.8349 72.7833 48.0697 72.6102 48.2428C72.4371 48.416 72.2023 48.5134 71.9574 48.5137Z" fill="#ff1aff"/>
<path d="M51.4673 47.3077C50.9493 47.0537 50.3576 46.9928 49.7987 47.136C49.2397 47.2792 48.7502 47.6171 48.4182 48.089C48.0861 48.5608 47.9333 49.1357 47.9872 49.7102C48.041 50.2846 48.2981 50.821 48.7121 51.2229C49.1261 51.6248 49.6699 51.8658 50.2458 51.9026C50.8216 51.9393 51.3916 51.7695 51.8534 51.4235C52.3152 51.0776 52.6384 50.5782 52.7649 50.0153C52.8915 49.4524 52.813 48.8627 52.5437 48.3525L59.9316 40.9646C60.0722 40.8239 60.1513 40.6332 60.1513 40.4343V35.9868C60.6999 35.8082 61.1668 35.4398 61.468 34.9478C61.7693 34.4558 61.8851 33.8725 61.7947 33.3027C61.7043 32.7329 61.4136 32.2141 60.9749 31.8394C60.5362 31.4648 59.9782 31.259 59.4013 31.259C58.8244 31.259 58.2664 31.4648 57.8277 31.8394C57.3889 32.2141 57.0982 32.7329 57.0078 33.3027C56.9175 33.8725 57.0333 34.4558 57.3346 34.9478C57.6358 35.4398 58.1027 35.8082 58.6513 35.9868V40.1238L51.4673 47.3077ZM50.4004 50.4041C50.2177 50.4041 50.0392 50.3499 49.8873 50.2485C49.7354 50.147 49.617 50.0027 49.5471 49.834C49.4772 49.6652 49.4589 49.4795 49.4946 49.3004C49.5302 49.1212 49.6182 48.9566 49.7473 48.8275C49.8765 48.6983 50.0411 48.6103 50.2202 48.5747C50.3994 48.5391 50.5851 48.5574 50.7539 48.6273C50.9226 48.6972 51.0669 48.8155 51.1683 48.9674C51.2698 49.1193 51.324 49.2979 51.324 49.4805C51.3237 49.7254 51.2263 49.9602 51.0532 50.1333C50.88 50.3064 50.6453 50.4038 50.4004 50.4041ZM58.4779 33.6834C58.4779 33.5008 58.5321 33.3222 58.6336 33.1704C58.7351 33.0185 58.8793 32.9002 59.0481 32.8303C59.2168 32.7605 59.4025 32.7422 59.5816 32.7779C59.7608 32.8135 59.9253 32.9015 60.0544 33.0306C60.1836 33.1598 60.2715 33.3244 60.3071 33.5035C60.3427 33.6826 60.3244 33.8683 60.2545 34.037C60.1846 34.2058 60.0662 34.35 59.9143 34.4514C59.7624 34.5529 59.5839 34.607 59.4013 34.607C59.1564 34.6067 58.9217 34.5092 58.7486 34.3361C58.5755 34.163 58.4782 33.9282 58.4779 33.6834Z" fill="#ff1aff"/>
<path d="M41.3428 50.871C40.8297 50.8717 40.33 51.035 39.9155 51.3375C39.501 51.6399 39.193 52.066 39.0358 52.5544H30.2644L24.1221 46.412V40.9198C24.6724 40.7448 25.1421 40.3793 25.447 39.8889C25.7518 39.3985 25.8716 38.8154 25.7849 38.2445C25.6983 37.6737 25.4108 37.1525 24.9741 36.7746C24.5375 36.3968 23.9804 36.1872 23.403 36.1834C22.8256 36.1796 22.2658 36.382 21.8243 36.7541C21.3828 37.1262 21.0885 37.6436 20.9944 38.2133C20.9002 38.7829 21.0125 39.3675 21.3108 39.8618C21.6092 40.3562 22.0742 40.7278 22.6221 40.91V46.7225C22.6221 46.9214 22.7012 47.1121 22.8418 47.2528L29.4236 53.8345C29.5642 53.9752 29.755 54.0542 29.9539 54.0543H39.043C39.1831 54.478 39.4375 54.8549 39.7782 55.1432C40.1188 55.4316 40.5326 55.6202 40.9737 55.6883C41.4148 55.7564 41.8661 55.7013 42.2779 55.5292C42.6897 55.357 43.0459 55.0745 43.3073 54.7127C43.5687 54.3509 43.725 53.924 43.7591 53.479C43.7932 53.0339 43.7037 52.5881 43.5005 52.1908C43.2973 51.7934 42.9883 51.4598 42.6075 51.227C42.2268 50.9941 41.7891 50.8709 41.3428 50.871ZM23.3855 39.535C23.2029 39.5351 23.0243 39.481 22.8724 39.3795C22.7204 39.278 22.602 39.1338 22.5321 38.9651C22.4622 38.7963 22.4438 38.6106 22.4794 38.4314C22.5151 38.2523 22.603 38.0877 22.7322 37.9585C22.8613 37.8293 23.0259 37.7413 23.205 37.7057C23.3842 37.67 23.5699 37.6883 23.7387 37.7582C23.9075 37.8281 24.0517 37.9465 24.1532 38.0983C24.2547 38.2502 24.3089 38.4288 24.3089 38.6115C24.3086 38.8563 24.2112 39.091 24.0381 39.2642C23.865 39.4373 23.6303 39.5347 23.3855 39.535ZM41.3428 54.2182C41.1601 54.2182 40.9815 54.1641 40.8296 54.0627C40.6777 53.9612 40.5593 53.817 40.4893 53.6482C40.4194 53.4795 40.4011 53.2938 40.4367 53.1146C40.4723 52.9354 40.5603 52.7708 40.6894 52.6416C40.8186 52.5124 40.9831 52.4245 41.1623 52.3888C41.3415 52.3532 41.5272 52.3714 41.6959 52.4413C41.8647 52.5112 42.009 52.6296 42.1105 52.7815C42.212 52.9334 42.2661 53.1119 42.2661 53.2946C42.2658 53.5394 42.1685 53.7742 41.9954 53.9473C41.8223 54.1204 41.5876 54.2179 41.3428 54.2182Z" fill="#ff1aff"/>
<path d="M52.2902 57.4395C52.7835 57.4386 53.2643 57.2846 53.6662 56.9986C54.0681 56.7127 54.3713 56.309 54.5338 55.8433H57.7998C57.9987 55.8432 58.1894 55.7642 58.33 55.6235L62.1606 51.793H64.4321C64.607 52.3305 64.9675 52.7883 65.4491 53.0842C65.9307 53.3802 66.5019 53.4951 67.0605 53.4083C67.619 53.3215 68.1285 53.0387 68.4975 52.6105C68.8666 52.1824 69.0712 51.6368 69.0747 51.0716C69.0782 50.5063 68.8803 49.9582 68.5166 49.5256C68.1528 49.0929 67.6469 48.8038 67.0894 48.7101C66.532 48.6165 65.9594 48.7243 65.4742 49.0143C64.989 49.3043 64.6229 49.7576 64.4414 50.293H61.8501C61.6512 50.293 61.4604 50.372 61.3198 50.5127L57.4892 54.3433H54.5574C54.4247 53.9244 54.1786 53.5505 53.8464 53.2631C53.5142 52.9756 53.1089 52.7857 52.6753 52.7146C52.2418 52.6435 51.797 52.6938 51.3904 52.86C50.9837 53.0263 50.631 53.3019 50.3715 53.6564C50.1119 54.0108 49.9557 54.4303 49.92 54.8682C49.8843 55.306 49.9706 55.7452 50.1693 56.1371C50.368 56.5289 50.6714 56.858 51.0458 57.0879C51.4202 57.3178 51.8509 57.4395 52.2902 57.4395ZM66.6921 50.1773C66.8658 50.1773 67.0356 50.2288 67.18 50.3253C67.3244 50.4218 67.437 50.559 67.5034 50.7195C67.5699 50.88 67.5873 51.0566 67.5534 51.2269C67.5195 51.3973 67.4358 51.5538 67.313 51.6766C67.1902 51.7994 67.0337 51.8831 66.8633 51.917C66.693 51.9509 66.5164 51.9335 66.3559 51.867C66.1954 51.8006 66.0582 51.688 65.9617 51.5436C65.8652 51.3992 65.8137 51.2294 65.8137 51.0557C65.8139 50.8228 65.9066 50.5995 66.0712 50.4348C66.2359 50.2701 66.4592 50.1775 66.6921 50.1773ZM52.2902 54.1829C52.4639 54.1829 52.6338 54.2343 52.7782 54.3308C52.9227 54.4273 53.0353 54.5645 53.1018 54.725C53.1683 54.8854 53.1857 55.062 53.1518 55.2324C53.1179 55.4028 53.0343 55.5593 52.9115 55.6821C52.7887 55.805 52.6322 55.8887 52.4618 55.9226C52.2915 55.9565 52.1149 55.9391 51.9544 55.8727C51.7939 55.8062 51.6567 55.6937 51.5601 55.5492C51.4636 55.4048 51.4121 55.235 51.4121 55.0613C51.4123 54.8285 51.5049 54.6052 51.6695 54.4405C51.8342 54.2759 52.0574 54.1832 52.2902 54.1829Z" fill="#ff1aff"/>
<path d="M28.4826 40.9137C28.1156 40.9128 27.7531 40.9954 27.4227 41.1552C27.0922 41.3149 26.8023 41.5476 26.5749 41.8357C26.3475 42.1238 26.1885 42.4598 26.1099 42.8184C26.0313 43.1769 26.0352 43.5486 26.1213 43.9054C26.2073 44.2623 26.3733 44.5949 26.6067 44.8782C26.84 45.1615 27.1347 45.3881 27.4684 45.5409C27.8022 45.6937 28.1663 45.7687 28.5332 45.7602C28.9002 45.7517 29.2604 45.66 29.5868 45.492L32.9677 48.8731C33.1084 49.0138 33.2991 49.0928 33.498 49.0929H42.2063C42.4052 49.0928 42.5959 49.0138 42.7365 48.8731L46.1048 45.5049C46.622 45.7621 47.2141 45.8263 47.7744 45.6859C48.3348 45.5456 48.8267 45.2099 49.1616 44.7393C49.4966 44.2686 49.6526 43.6939 49.6017 43.1185C49.5508 42.5431 49.2962 42.0047 48.8838 41.6003C48.4714 41.1958 47.9281 40.9517 47.3518 40.912C46.7755 40.8722 46.204 41.0394 45.7399 41.3835C45.2759 41.7275 44.9499 42.2259 44.8204 42.7889C44.691 43.3518 44.7667 43.9425 45.0339 44.4547L41.8957 47.5929H33.8088L30.6438 44.4279C30.8313 44.0588 30.9209 43.6477 30.904 43.2341C30.8872 42.8204 30.7644 42.4181 30.5476 42.0654C30.3307 41.7128 30.027 41.4217 29.6654 41.2201C29.3039 41.0184 28.8966 40.9129 28.4826 40.9137ZM28.4826 44.2608C28.3 44.2609 28.1214 44.2067 27.9695 44.1053C27.8175 44.0038 27.6991 43.8596 27.6292 43.6908C27.5593 43.5221 27.5409 43.3364 27.5765 43.1572C27.6122 42.978 27.7001 42.8135 27.8293 42.6843C27.9584 42.5551 28.123 42.4671 28.3021 42.4314C28.4813 42.3958 28.667 42.4141 28.8358 42.484C29.0046 42.5539 29.1488 42.6722 29.2503 42.8241C29.3518 42.976 29.406 43.1546 29.406 43.3373C29.4057 43.5821 29.3083 43.8168 29.1352 43.9899C28.9621 44.1631 28.7275 44.2605 28.4826 44.2608ZM47.1823 42.4137C47.365 42.4137 47.5436 42.4678 47.6954 42.5693C47.8473 42.6708 47.9657 42.815 48.0356 42.9838C48.1055 43.1526 48.1238 43.3383 48.0882 43.5174C48.0525 43.6966 47.9646 43.8611 47.8354 43.9903C47.7062 44.1195 47.5417 44.2074 47.3625 44.2431C47.1834 44.2787 46.9977 44.2604 46.8289 44.1905C46.6601 44.1206 46.5159 44.0022 46.4144 43.8503C46.3129 43.6985 46.2588 43.5199 46.2588 43.3372C46.259 43.0924 46.3564 42.8576 46.5296 42.6845C46.7027 42.5113 46.9375 42.4139 47.1823 42.4137Z" fill="#ff1aff"/>
<path d="M68.0867 33.4654C67.705 33.4656 67.3288 33.5566 66.9892 33.7309L61.4161 28.1575C61.2755 28.0169 61.0847 27.9378 60.8858 27.9378H48.7298C48.5424 27.3932 48.1669 26.9332 47.6707 26.6406C47.1746 26.348 46.5903 26.242 46.023 26.3416C45.4557 26.4412 44.9425 26.7399 44.5757 27.184C44.2088 27.6281 44.0125 28.1885 44.0218 28.7644C44.0312 29.3404 44.2456 29.8941 44.6267 30.326C45.0077 30.758 45.5303 31.0399 46.1006 31.121C46.6708 31.2022 47.2513 31.0773 47.7377 30.7687C48.2241 30.4602 48.5845 29.9883 48.7542 29.4378H60.575L65.9287 34.7915C65.6899 35.262 65.6114 35.7976 65.705 36.3168C65.7985 36.8361 66.0591 37.3105 66.4471 37.6681C66.835 38.0257 67.3291 38.2468 67.8543 38.2978C68.3794 38.3488 68.9068 38.227 69.3564 37.9508C69.8059 37.6745 70.1529 37.2591 70.3447 36.7676C70.5365 36.276 70.5625 35.7353 70.4188 35.2277C70.2751 34.72 69.9695 34.2732 69.5486 33.9551C69.1276 33.637 68.6144 33.465 68.0867 33.4654ZM46.439 29.6452C46.2564 29.6452 46.0779 29.5911 45.926 29.4896C45.7741 29.3882 45.6557 29.244 45.5858 29.0752C45.5159 28.9065 45.4976 28.7208 45.5332 28.5417C45.5688 28.3626 45.6568 28.198 45.7859 28.0688C45.915 27.9397 46.0796 27.8517 46.2587 27.8161C46.4378 27.7804 46.6235 27.7987 46.7922 27.8685C46.961 27.9384 47.1052 28.0568 47.2067 28.2086C47.3082 28.3604 47.3624 28.539 47.3624 28.7216C47.3621 28.9664 47.2648 29.2012 47.0917 29.3743C46.9186 29.5474 46.6839 29.6449 46.439 29.6452ZM68.0867 36.8124C67.9041 36.8124 67.7256 36.7582 67.5737 36.6567C67.4219 36.5553 67.3036 36.411 67.2337 36.2423C67.1638 36.0736 67.1455 35.8879 67.1812 35.7088C67.2168 35.5297 67.3048 35.3651 67.4339 35.236C67.563 35.1069 67.7276 35.0189 67.9067 34.9833C68.0858 34.9476 68.2715 34.9659 68.4402 35.0358C68.6089 35.1057 68.7532 35.224 68.8546 35.3758C68.9561 35.5277 69.0103 35.7062 69.0103 35.8888C69.01 36.1337 68.9126 36.3684 68.7395 36.5416C68.5663 36.7147 68.3316 36.8121 68.0867 36.8124Z" fill="#ff1aff"/>
<path d="M71.9957 41.7845C71.9959 41.2076 71.7902 40.6495 71.4157 40.2107C71.0411 39.7719 70.5223 39.4812 69.9525 39.3908C69.3827 39.3004 68.7994 39.4162 68.3074 39.7176C67.8154 40.0189 67.4471 40.4858 67.2687 41.0345H64.2616C64.0627 41.0345 63.8719 41.1135 63.7313 41.2542L57.6923 47.2932C57.1718 47.0478 56.5809 46.996 56.0257 47.1472C55.4705 47.2985 54.9874 47.6427 54.6633 48.1182C54.3391 48.5936 54.1952 49.1691 54.2573 49.7412C54.3194 50.3132 54.5835 50.8444 55.0021 51.2392C55.4208 51.634 55.9665 51.8666 56.5412 51.8951C57.1159 51.9236 57.682 51.7462 58.1376 51.3948C58.5933 51.0434 58.9087 50.541 59.0272 49.9779C59.1456 49.4148 59.0594 48.8279 58.7839 48.3227L64.5721 42.5345H67.2687C67.4471 43.0831 67.8154 43.5501 68.3074 43.8514C68.7994 44.1527 69.3827 44.2686 69.9525 44.1782C70.5223 44.0878 71.0411 43.797 71.4157 43.3582C71.7902 42.9194 71.9959 42.3614 71.9957 41.7845ZM56.6557 50.4041C56.473 50.4042 56.2944 50.35 56.1425 50.2486C55.9906 50.1471 55.8722 50.0029 55.8023 49.8341C55.7323 49.6654 55.714 49.4797 55.7496 49.3005C55.7852 49.1213 55.8732 48.9567 56.0023 48.8275C56.1315 48.6984 56.296 48.6104 56.4752 48.5747C56.6544 48.5391 56.8401 48.5573 57.0089 48.6272C57.1776 48.6971 57.3219 48.8155 57.4234 48.9674C57.5249 49.1193 57.5791 49.2979 57.5791 49.4805C57.5788 49.7254 57.4814 49.9601 57.3083 50.1332C57.1352 50.3064 56.9005 50.4038 56.6557 50.4041ZM68.6486 41.7845C68.6486 41.6018 68.7028 41.4233 68.8043 41.2714C68.9058 41.1195 69.05 41.0011 69.2188 40.9312C69.3875 40.8613 69.5732 40.843 69.7524 40.8787C69.9315 40.9143 70.0961 41.0023 70.2253 41.1314C70.3544 41.2606 70.4424 41.4251 70.478 41.6043C70.5137 41.7835 70.4954 41.9692 70.4255 42.1379C70.3556 42.3067 70.2372 42.4509 70.0853 42.5524C69.9334 42.6539 69.7549 42.7081 69.5722 42.7081C69.3273 42.7078 69.0925 42.6104 68.9194 42.4373C68.7462 42.2641 68.6489 42.0294 68.6486 41.7845Z" fill="#ff1aff"/>
<path d="M54.9046 66.8514V63.7339C54.9046 63.535 54.8255 63.3443 54.6849 63.2037L48.5935 57.1123C48.859 56.5974 48.9321 56.0046 48.7995 55.4407C48.6669 54.8767 48.3373 54.3786 47.8702 54.036C47.403 53.6933 46.8289 53.5287 46.2512 53.5716C45.6734 53.6146 45.13 53.8623 44.7186 54.2703C44.3073 54.6782 44.055 55.2196 44.0073 55.797C43.9596 56.3744 44.1195 56.9498 44.4582 57.4198C44.797 57.8898 45.2924 58.2234 45.8552 58.3607C46.418 58.4979 47.0114 58.4298 47.5285 58.1685L53.4045 64.0445V66.8376C52.8535 67.011 52.3825 67.3754 52.0762 67.8651C51.7699 68.3548 51.6484 68.9377 51.7335 69.509C51.8185 70.0803 52.1047 70.6025 52.5404 70.9817C52.9761 71.3609 53.5329 71.5722 54.1104 71.5775C54.688 71.5829 55.2486 71.382 55.6913 71.011C56.134 70.64 56.4298 70.1232 56.5255 69.5536C56.6212 68.9839 56.5105 68.3989 56.2134 67.9035C55.9162 67.4082 55.4522 67.0351 54.9046 66.8514ZM46.4397 56.9299C46.2571 56.9299 46.0785 56.8758 45.9266 56.7743C45.7747 56.6729 45.6562 56.5286 45.5863 56.3599C45.5164 56.1911 45.498 56.0054 45.5337 55.8262C45.5693 55.6471 45.6572 55.4825 45.7864 55.3533C45.9155 55.2241 46.0801 55.1361 46.2593 55.1005C46.4384 55.0648 46.6241 55.0831 46.7929 55.153C46.9617 55.2229 47.1059 55.3413 47.2074 55.4932C47.3089 55.645 47.3631 55.8236 47.3631 56.0063C47.3628 56.2511 47.2655 56.4858 47.0924 56.659C46.9193 56.8321 46.6846 56.9295 46.4397 56.9299ZM54.1355 70.0715C53.9529 70.0715 53.7743 70.0173 53.6224 69.9158C53.4705 69.8143 53.3522 69.6701 53.2823 69.5013C53.2124 69.3326 53.1941 69.1469 53.2297 68.9677C53.2653 68.7886 53.3533 68.624 53.4825 68.4948C53.6116 68.3657 53.7762 68.2777 53.9554 68.2421C54.1345 68.2064 54.3202 68.2247 54.489 68.2946C54.6577 68.3645 54.802 68.4829 54.9035 68.6348C55.0049 68.7867 55.0591 68.9652 55.0591 69.1479C55.0588 69.3928 54.9615 69.6275 54.7883 69.8007C54.6152 69.9738 54.3804 70.0712 54.1355 70.0715Z" fill="#ff1aff"/>
<path d="M71.7772 50.9275C71.2007 50.9273 70.6432 51.1327 70.2045 51.5067C69.7659 51.8807 69.475 52.3988 69.3841 52.968C69.2932 53.5372 69.4082 54.1202 69.7085 54.6122C70.0088 55.1043 70.4747 55.4731 71.0225 55.6525V57.9555L68.1207 60.8573H62.862C62.6631 60.8573 62.4723 60.9364 62.3317 61.077L58.8383 64.5704C58.6976 64.7111 58.6186 64.9018 58.6186 65.1007V71.3402C58.0683 71.5153 57.5986 71.8809 57.2939 72.3714C56.9892 72.8618 56.8695 73.4449 56.9563 74.0157C57.043 74.5866 57.3307 75.1078 57.7674 75.4855C58.2041 75.8632 58.7612 76.0728 59.3386 76.0764C59.916 76.0801 60.4758 75.8776 60.9172 75.5054C61.3587 75.1333 61.6529 74.6158 61.7469 74.0461C61.8409 73.4764 61.7285 72.8918 61.43 72.3976C61.1316 71.9033 60.6665 71.5317 60.1186 71.3497V65.4113L63.1725 62.3574H68.4313C68.6302 62.3574 68.821 62.2783 68.9616 62.1377L72.3029 58.7964C72.4436 58.6557 72.5226 58.465 72.5226 58.2661V55.6559C73.072 55.4785 73.54 55.1107 73.8422 54.6189C74.1445 54.127 74.2612 53.5434 74.1713 52.9731C74.0814 52.4028 73.7908 51.8834 73.3519 51.5083C72.913 51.1333 72.3545 50.9273 71.7772 50.9275ZM60.2791 73.6484C60.2791 73.8311 60.225 74.0097 60.1235 74.1615C60.022 74.3134 59.8777 74.4318 59.709 74.5017C59.5402 74.5716 59.3545 74.5899 59.1754 74.5543C58.9962 74.5186 58.8316 74.4307 58.7025 74.3015C58.5733 74.1723 58.4854 74.0078 58.4497 73.8286C58.4141 73.6494 58.4324 73.4637 58.5023 73.295C58.5722 73.1262 58.6906 72.982 58.8424 72.8805C58.9943 72.779 59.1729 72.7248 59.3555 72.7248C59.6004 72.7251 59.8352 72.8225 60.0084 72.9956C60.1815 73.1688 60.2788 73.4035 60.2791 73.6484ZM71.7772 54.2744C71.5945 54.2744 71.416 54.2202 71.2642 54.1187C71.1123 54.0172 70.994 53.873 70.9241 53.7043C70.8542 53.5355 70.836 53.3499 70.8716 53.1708C70.9072 52.9916 70.9952 52.8271 71.1243 52.698C71.2535 52.5688 71.418 52.4809 71.5971 52.4452C71.7762 52.4096 71.9619 52.4279 72.1306 52.4978C72.2994 52.5676 72.4436 52.686 72.5451 52.8378C72.6465 52.9897 72.7007 53.1682 72.7007 53.3508C72.7005 53.5957 72.6031 53.8304 72.4299 54.0036C72.2568 54.1767 72.022 54.2741 71.7772 54.2744Z" fill="#ff1aff"/>
<path d="M33.2753 30.5173C32.9083 30.5166 32.5459 30.5992 32.2155 30.7589C31.8851 30.9186 31.5952 31.1512 31.3679 31.4393C31.1405 31.7274 30.9815 32.0633 30.9029 32.4218C30.8243 32.7803 30.8282 33.1519 30.9142 33.5087C31.0002 33.8655 31.1661 34.1981 31.3994 34.4814C31.6326 34.7647 31.9272 34.9913 32.2609 35.1441C32.5945 35.297 32.9585 35.372 33.3254 35.3637C33.6923 35.3553 34.0526 35.2637 34.3789 35.0958L37.7094 38.4263V40.7565C37.1583 40.9298 36.6872 41.2939 36.3807 41.7835C36.0742 42.2731 35.9525 42.856 36.0374 43.4274C36.1223 43.9987 36.4082 44.521 36.8438 44.9004C37.2794 45.2797 37.8361 45.4912 38.4137 45.4968C38.9913 45.5023 39.5519 45.3016 39.9948 44.9308C40.4376 44.5599 40.7336 44.0432 40.8295 43.4736C40.9254 42.904 40.8149 42.3189 40.5179 41.8235C40.2209 41.328 39.7569 40.9548 39.2094 40.771V38.1157C39.2093 37.9168 39.1303 37.7261 38.9896 37.5854L35.4363 34.0321C35.6239 33.663 35.7136 33.2519 35.6969 32.8382C35.6801 32.4244 35.5574 32.022 35.3406 31.6692C35.1237 31.3165 34.8199 31.0254 34.4583 30.8237C34.0967 30.622 33.6893 30.5165 33.2753 30.5173ZM33.2753 33.8643C33.0926 33.8642 32.9141 33.8101 32.7623 33.7086C32.6104 33.6071 32.4921 33.4628 32.4222 33.2941C32.3523 33.1254 32.3341 32.9397 32.3697 32.7606C32.4054 32.5814 32.4934 32.4169 32.6225 32.2878C32.7517 32.1586 32.9162 32.0707 33.0954 32.0351C33.2745 31.9995 33.4602 32.0178 33.6289 32.0877C33.7976 32.1576 33.9418 32.276 34.0433 32.4279C34.1447 32.5797 34.1989 32.7583 34.1989 32.9409C34.1985 33.1857 34.1011 33.4205 33.928 33.5936C33.7548 33.7666 33.5201 33.864 33.2753 33.8643ZM38.4396 42.1436C38.6223 42.1435 38.8008 42.1977 38.9528 42.2991C39.1047 42.4006 39.2231 42.5448 39.293 42.7136C39.363 42.8823 39.3813 43.068 39.3457 43.2472C39.3101 43.4264 39.2221 43.5909 39.093 43.7201C38.9638 43.8493 38.7992 43.9373 38.6201 43.973C38.4409 44.0086 38.2552 43.9903 38.0864 43.9204C37.9177 43.8505 37.7734 43.7322 37.6719 43.5803C37.5704 43.4284 37.5162 43.2498 37.5162 43.0671C37.5165 42.8223 37.6139 42.5876 37.787 42.4145C37.9601 42.2413 38.1948 42.1439 38.4396 42.1436Z" fill="#ff1aff"/>
<path d="M37.4939 26.2981C37.1292 26.297 36.7689 26.3783 36.44 26.5359C36.1111 26.6935 35.8219 26.9232 35.5942 27.2081C35.3664 27.4929 35.2059 27.8255 35.1245 28.1811C35.0432 28.5366 35.0431 28.9059 35.1244 29.2615C35.2056 29.617 35.3661 29.9497 35.5938 30.2346C35.8215 30.5195 36.1106 30.7493 36.4395 30.907C36.7684 31.0646 37.1286 31.146 37.4933 31.145C37.8581 31.1441 38.2179 31.0608 38.5459 30.9014L45.0984 37.4541C45.2391 37.5947 45.4298 37.6738 45.6287 37.6738H49.8062C49.9848 38.2225 50.3532 38.6894 50.8452 38.9907C51.3373 39.292 51.9207 39.4079 52.4905 39.3175C53.0603 39.2271 53.5792 38.9364 53.9539 38.4976C54.3286 38.0588 54.5344 37.5008 54.5344 36.9238C54.5344 36.3468 54.3286 35.7888 53.9539 35.35C53.5792 34.9113 53.0603 34.6206 52.4905 34.5302C51.9207 34.4398 51.3373 34.5556 50.8452 34.8569C50.3532 35.1582 49.9848 35.6252 49.8062 36.1738H45.9392L39.63 29.8644C39.828 29.4953 39.9268 29.0812 39.9168 28.6625C39.9069 28.2438 39.7885 27.8348 39.5733 27.4755C39.3581 27.1162 39.0534 26.8188 38.689 26.6125C38.3245 26.4061 37.9127 26.2978 37.4939 26.2981ZM37.4939 29.645C37.3113 29.645 37.1328 29.5908 36.9809 29.4893C36.8291 29.3879 36.7107 29.2436 36.6409 29.0749C36.571 28.9062 36.5527 28.7205 36.5883 28.5414C36.624 28.3623 36.7119 28.1977 36.8411 28.0686C36.9702 27.9394 37.1347 27.8515 37.3138 27.8159C37.493 27.7802 37.6786 27.7985 37.8474 27.8684C38.0161 27.9383 38.1603 28.0566 38.2618 28.2084C38.3633 28.3603 38.4175 28.5388 38.4175 28.7214C38.4172 28.9663 38.3198 29.2011 38.1467 29.3743C37.9736 29.5474 37.7388 29.6447 37.4939 29.645ZM52.1095 36.0002C52.2922 36.0002 52.4708 36.0544 52.6226 36.1559C52.7745 36.2574 52.8929 36.4016 52.9628 36.5704C53.0327 36.7391 53.051 36.9248 53.0154 37.104C52.9797 37.2832 52.8918 37.4477 52.7626 37.5769C52.6334 37.706 52.4689 37.794 52.2897 37.8296C52.1106 37.8653 51.9249 37.847 51.7561 37.7771C51.5873 37.7072 51.4431 37.5888 51.3416 37.4369C51.2401 37.285 51.186 37.1065 51.186 36.9238C51.1862 36.679 51.2836 36.4442 51.4568 36.2711C51.6299 36.0979 51.8647 36.0005 52.1095 36.0002Z" fill="#ff1aff"/>
</svg>
