<svg width="100" height="101" viewBox="0 0 100 101" fill="none" xmlns="http://www.w3.org/2000/svg">
<path d="M62.5 49.8701C63.8807 49.8701 65 48.7508 65 47.3701C65 45.9894 63.8807 44.8701 62.5 44.8701C61.1193 44.8701 60 45.9894 60 47.3701C60 48.7508 61.1193 49.8701 62.5 49.8701Z" stroke="#ff1aff" stroke-width="1.5" stroke-miterlimit="10" stroke-linecap="round" stroke-linejoin="round"/>
<path d="M62.5 57.8701C63.8807 57.8701 65 56.7508 65 55.3701C65 53.9894 63.8807 52.8701 62.5 52.8701C61.1193 52.8701 60 53.9894 60 55.3701C60 56.7508 61.1193 57.8701 62.5 57.8701Z" stroke="#ff1aff" stroke-width="1.5" stroke-miterlimit="10" stroke-linecap="round" stroke-linejoin="round"/>
<path d="M70.5 49.8701C71.8807 49.8701 73 48.7508 73 47.3701C73 45.9894 71.8807 44.8701 70.5 44.8701C69.1193 44.8701 68 45.9894 68 47.3701C68 48.7508 69.1193 49.8701 70.5 49.8701Z" stroke="#ff1aff" stroke-width="1.5" stroke-miterlimit="10" stroke-linecap="round" stroke-linejoin="round"/>
<path d="M70.5 57.8701C71.8807 57.8701 73 56.7508 73 55.3701C73 53.9894 71.8807 52.8701 70.5 52.8701C69.1193 52.8701 68 53.9894 68 55.3701C68 56.7508 69.1193 57.8701 70.5 57.8701Z" stroke="#ff1aff" stroke-width="1.5" stroke-miterlimit="10" stroke-linecap="round" stroke-linejoin="round"/>
<path d="M50 21.8701V35.3701M50 35.3701H29.75C24.7797 35.3701 20.75 39.3998 20.75 44.3701V66.8701C20.75 71.8404 24.7797 75.8701 29.75 75.8701C38.75 75.8701 43.25 64.6201 43.25 64.6201H56.75C56.75 64.6201 61.25 75.8701 70.25 75.8701C75.2203 75.8701 79.25 71.8404 79.25 66.8701V44.3701C79.25 39.3998 75.2203 35.3701 70.25 35.3701H50Z" stroke="#ff1aff" stroke-width="1.5" stroke-miterlimit="10" stroke-linecap="round" stroke-linejoin="round"/>
<path d="M36.5 44.3701V57.8701" stroke="#ff1aff" stroke-width="1.5" stroke-miterlimit="10" stroke-linecap="round" stroke-linejoin="round"/>
<path d="M29.75 51.1201H43.25" stroke="#ff1aff" stroke-width="1.5" stroke-miterlimit="10" stroke-linecap="round" stroke-linejoin="round"/>
</svg>
