<svg width="100" height="101" viewBox="0 0 100 101" fill="none" xmlns="http://www.w3.org/2000/svg">
<path d="M37.4688 72.2295H26.6406C23.9937 72.2295 21.8281 69.4623 21.8281 66.8154V24.706C21.8281 22.0592 23.9937 20.4951 26.6406 20.4951H50.7031C53.35 20.4951 55.5156 22.0592 55.5156 24.706V42.1513" stroke="#ff1aff" stroke-width="1.5" stroke-miterlimit="10" stroke-linecap="round" stroke-linejoin="round"/>
<path d="M35.0625 25.3076H41.0781" stroke="#ff1aff" stroke-width="1.5" stroke-miterlimit="10" stroke-linecap="round" stroke-linejoin="round"/>
<path d="M38.6719 67.0561C39.3363 67.0561 39.875 66.5175 39.875 65.853C39.875 65.1885 39.3363 64.6499 38.6719 64.6499C38.0074 64.6499 37.4688 65.1885 37.4688 65.853C37.4688 66.5175 38.0074 67.0561 38.6719 67.0561Z" stroke="#ff1aff" stroke-miterlimit="10" stroke-linecap="round" stroke-linejoin="round"/>
<path d="M87.0486 67.8706C82.0486 61.8706 78.0486 55.3706 72.3606 48.4078C70.0352 45.5612 67.4278 42.5125 64.4199 43.3547C63.6981 43.5953 54.1934 48.8891 53.9528 49.0094C52.7496 49.3703 51.6668 49.0094 51.1856 48.4078C48.5387 45.2797 43.4856 39.7453 43.4856 39.7453C43.4856 39.7453 41.4403 37.9406 39.5153 38.5422C39.2746 38.6625 38.9137 38.7828 38.6731 38.9031C36.5074 40.4672 38.3121 43.475 38.3121 43.475L54.0731 65.2516C54.0731 65.2516 52.6293 65.4922 50.7043 65.9734C48.8996 66.575 46.4934 67.4172 44.5684 68.8609C40.5981 71.7484 40.8387 73.6734 41.9215 75.1172C42.4028 75.8391 43.2449 75.8391 44.2074 75.4781C55.8778 71.1469 66.7059 72.8312 67.3074 73.0719C67.909 73.3125 72.6012 78.7266 72.6012 78.7266" stroke="#ff1aff" stroke-width="1.5" stroke-miterlimit="10" stroke-linecap="round" stroke-linejoin="round"/>
</svg>
