<svg width="100" height="101" viewBox="0 0 100 101" fill="none" xmlns="http://www.w3.org/2000/svg">
<path d="M59.3768 46.6044C61.3478 45.3794 63.6058 44.5474 66.0588 44.2344C75.1998 43.0624 83.5608 49.5254 84.7328 58.6654C85.9028 67.8084 79.4398 76.1674 70.2988 77.3394C61.1578 78.5104 52.7968 72.0484 51.6248 62.9074C51.0268 58.2414 52.4198 53.7814 55.1388 50.3744" stroke="#00EF8B" stroke-width="1.5" stroke-miterlimit="10" stroke-linecap="round" stroke-linejoin="round"/>
<path d="M73.8829 52.5073L62.4749 69.0643" stroke="#00EF8B" stroke-width="1.5" stroke-miterlimit="10" stroke-linecap="round"/>
<path d="M62.6169 57.9848C64.3826 57.9848 65.8139 56.5535 65.8139 54.7878C65.8139 53.0222 64.3826 51.5908 62.6169 51.5908C60.8513 51.5908 59.4199 53.0222 59.4199 54.7878C59.4199 56.5535 60.8513 57.9848 62.6169 57.9848Z" stroke="#00EF8B" stroke-width="1.5" stroke-miterlimit="10" stroke-linecap="round"/>
<path d="M76.938 66.7819C76.938 68.5489 75.504 69.9809 73.739 69.9809C71.975 69.9809 70.542 68.5479 70.542 66.7819C70.542 65.0179 71.976 63.5869 73.739 63.5869C75.504 63.5869 76.938 65.0179 76.938 66.7819Z" stroke="#00EF8B" stroke-width="1.5" stroke-miterlimit="10" stroke-linecap="round"/>
<path d="M64.4548 44.0525V27.9185" stroke="#00EF8B" stroke-width="1.5" stroke-miterlimit="10" stroke-linecap="round" stroke-linejoin="round"/>
<path d="M29.6299 49.5396C37.0857 49.5396 43.1299 46.7414 43.1299 43.2896C43.1299 39.8378 37.0857 37.0396 29.6299 37.0396C22.174 37.0396 16.1299 39.8378 16.1299 43.2896C16.1299 46.7414 22.174 49.5396 29.6299 49.5396Z" stroke="#00EF8B" stroke-width="1.5" stroke-miterlimit="10" stroke-linejoin="round"/>
<path d="M16.1299 51.0405C16.1299 54.4915 22.1739 57.2905 29.6299 57.2905C37.0859 57.2905 43.1299 54.4915 43.1299 51.0405" stroke="#00EF8B" stroke-width="1.5" stroke-miterlimit="10" stroke-linejoin="round"/>
<path d="M43.1299 58.7905C43.1299 62.2415 37.0859 65.0405 29.6299 65.0405C22.1739 65.0405 16.1589 62.2415 16.1589 58.7905" stroke="#00EF8B" stroke-width="1.5" stroke-miterlimit="10" stroke-linejoin="round"/>
<path d="M37.4558 27.3354V34.0465" stroke="#00EF8B" stroke-width="1.5" stroke-miterlimit="10" stroke-linejoin="round"/>
<path d="M43.1299 43.3936V66.6006C43.1299 70.0536 37.0859 72.8506 29.6299 72.8506C22.1739 72.8506 16.1299 70.0536 16.1299 66.6006V49.6756" stroke="#00EF8B" stroke-width="1.5" stroke-miterlimit="10" stroke-linejoin="round"/>
<path d="M48.1108 64.5243C46.3398 64.3483 44.6958 64.0123 43.2568 63.5493" stroke="#00EF8B" stroke-miterlimit="10" stroke-linejoin="round"/>
<path d="M47.49 56.7311C45.834 56.5281 44.302 56.1821 42.96 55.7251" stroke="#00EF8B" stroke-miterlimit="10" stroke-linejoin="round"/>
<path d="M50.2318 49.2062C47.5898 49.1412 45.1488 48.7252 43.1228 48.0562" stroke="#00EF8B" stroke-miterlimit="10" stroke-linejoin="round"/>
<path d="M64.4549 35.2393C64.4549 38.6913 58.4099 41.4893 50.9549 41.4893C49.6369 41.4893 48.3639 41.4023 47.1599 41.2393" stroke="#00EF8B" stroke-miterlimit="10" stroke-linejoin="round"/>
<path d="M50.9548 33.7642C58.4107 33.7642 64.4548 30.966 64.4548 27.5142C64.4548 24.0625 58.4107 21.2642 50.9548 21.2642C43.499 21.2642 37.4548 24.0625 37.4548 27.5142C37.4548 30.966 43.499 33.7642 50.9548 33.7642Z" stroke="#00EF8B" stroke-width="1.5" stroke-miterlimit="10" stroke-linejoin="round"/>
</svg>
