<svg width="100" height="101" viewBox="0 0 100 101" fill="none" xmlns="http://www.w3.org/2000/svg">
<path d="M48.445 44.8601L39.791 36.2051" stroke="#00EF8B" stroke-width="1.5" stroke-miterlimit="10"/>
<path d="M57.428 67.3512L65.475 75.4002C67.032 76.9572 69.577 76.9572 71.133 75.4002L72.231 74.3022C73.786 72.7462 73.786 70.2002 72.231 68.6462L64.182 60.5972" stroke="#00EF8B" stroke-width="1.5" stroke-miterlimit="10"/>
<path d="M33.0349 42.96L41.6909 51.615" stroke="#00EF8B" stroke-width="1.5" stroke-miterlimit="10"/>
<path d="M16.841 39.1723L25.369 47.6953C26.183 48.5093 27.633 48.3923 28.59 47.4353L52.356 23.6713C53.315 22.7113 54.235 21.8083 53.491 21.1663C53.491 21.1663 53.106 20.9103 52.772 21.0123C52.438 21.1163 40.204 24.3493 40.204 24.3493C38.1 24.8863 36.352 24.5303 35.38 23.8973L32.882 22.3813C32.882 22.3813 32.476 22.0463 31.64 22.1333C30.785 22.2203 30.011 23.0413 30.011 23.0413L17.104 35.9503C16.146 36.9063 16.027 38.3563 16.841 39.1723Z" stroke="#00EF8B" stroke-width="1.5" stroke-miterlimit="10"/>
<path d="M64.1309 41.3992L72.0199 33.5092L71.6269 29.9562L80.8029 24.3652L84.6989 28.2612L79.1109 37.4402L75.5569 37.0462L65.0429 47.5622" stroke="#00EF8B" stroke-width="1.5" stroke-miterlimit="10"/>
<path d="M58.5799 50.4883L39.4219 69.6443" stroke="#00EF8B" stroke-miterlimit="10" stroke-linecap="round" stroke-linejoin="round"/>
<path d="M42.6859 75.5003C40.9359 77.2503 38.0729 77.2503 36.3209 75.5003L33.5689 72.7463C31.8169 70.9963 31.8169 68.1333 33.5689 66.3833L55.3169 44.6333C57.0669 42.8833 59.9299 42.8833 61.6799 44.6333L64.4339 47.3873C66.1839 49.1373 66.1839 52.0003 64.4339 53.7503L42.6859 75.5003Z" stroke="#00EF8B" stroke-width="1.5" stroke-miterlimit="10" stroke-linejoin="round"/>
</svg>
